<svg id="Logo_Claro" data-name="Logo Claro" xmlns="http://www.w3.org/2000/svg" width="370" height="77" viewBox="0 0 370 77">
  <g id="Logo_Claro-2" data-name="Logo Claro">
    <path id="Fill_1" data-name="Fill 1" d="M23.753,0,0,23.753,6.241,30,30,6.24Z" transform="translate(171 6.947)" fill="#d92c27"/>
    <path id="Fill_2" data-name="Fill 2" d="M0,26H9V0H0Z" transform="translate(152 1.947)" fill="#d92c27"/>
    <g id="Group_16" data-name="Group 16" transform="translate(0 0.947)">
      <path id="Fill_3" data-name="Fill 3" d="M20.467,41.582a19.461,19.461,0,0,1-14.4-6.171A19.726,19.726,0,0,1,0,20.793,20.886,20.886,0,0,1,1.5,12.83,20.623,20.623,0,0,1,6.066,6.08,19.423,19.423,0,0,1,20.467,0,19.942,19.942,0,0,1,35.052,6.08a20.4,20.4,0,0,1,5.969,14.712A19.982,19.982,0,0,1,35.052,35.41,19.981,19.981,0,0,1,20.467,41.582Zm-.36-31.714a9.644,9.644,0,0,0-7.215,3.141,10.627,10.627,0,0,0-3.229,7.783,10.875,10.875,0,0,0,3.229,7.69A10.068,10.068,0,0,0,20.467,31.7a10.864,10.864,0,0,0,4.192-.79,10.189,10.189,0,0,0,3.477-2.431,11.3,11.3,0,0,0,3.225-7.69,11.248,11.248,0,0,0-3.134-7.783,9.984,9.984,0,0,0-7.389-3.141c-.122,0-.247,0-.371.006S20.226,9.868,20.107,9.868Z" transform="translate(134.615 34.418)" fill="#d92c27"/>
      <path id="Fill_5" data-name="Fill 5" d="M25.382,9.786a15.163,15.163,0,0,1,8.432,2.559A17.141,17.141,0,0,1,39.409,18.9H49.73A25.346,25.346,0,0,0,40.821,5.329,23.642,23.642,0,0,0,25.382,0,23.294,23.294,0,0,0,7.476,7.5,24.6,24.6,0,0,0,0,25.633,24.967,24.967,0,0,0,7.476,43.865a24.23,24.23,0,0,0,17.906,7.409,24.637,24.637,0,0,0,15.439-5.232A25.721,25.721,0,0,0,49.73,32.469H39.409a17.888,17.888,0,0,1-5.595,6.555,15.848,15.848,0,0,1-8.432,2.467A15.163,15.163,0,0,1,14.3,36.836a14.8,14.8,0,0,1-4.545-11.2A14.8,14.8,0,0,1,14.3,14.439,15.162,15.162,0,0,1,25.382,9.786" transform="translate(0 24.257)" fill="#d92c27"/>
      <path id="Fill_7" data-name="Fill 7" d="M33.925,41.4H24.06V37.318a15.224,15.224,0,0,1-5.457,3A25.353,25.353,0,0,1,11.376,41.4a12.586,12.586,0,0,1-8.062-2.755A10.55,10.55,0,0,1,.005,30.2c-.1-5.016,1.668-8.526,5.39-10.732A24.12,24.12,0,0,1,13.923,16.9l7.585-1.222a3.3,3.3,0,0,0,2.271-3.044c-.1-1.732-.644-2.788-1.7-3.325A8.3,8.3,0,0,0,17.9,8.346c-.213,0-.433.005-.653.016-.162-.007-.323-.01-.479-.01a5.67,5.67,0,0,0-4.733,1.914,6.423,6.423,0,0,0-1.422,3.607H.761c.3-3.8,1.2-6.544,2.841-8.645C6.217,1.761,10.733,0,17.025,0c.166,0,.336,0,.5,0,.215,0,.432-.007.645-.007A22.616,22.616,0,0,1,28.988,2.57a8.568,8.568,0,0,1,3.674,3.752,13.241,13.241,0,0,1,1.262,6.027V41.4ZM23.586,21.28,21.7,22.313l-4.93,1.239a13.26,13.26,0,0,0-4.643,1.327,4.912,4.912,0,0,0-2.368,4.469,4.9,4.9,0,0,0,1.424,3.89,5.39,5.39,0,0,0,3.5,1.134,10.424,10.424,0,0,0,6.158-1.992c1.821-1.35,2.744-3.744,2.744-7.114Z" transform="translate(70.383 34.315)" fill="#d92c27"/>
      <path id="Clip_10" data-name="Clip 10" d="M0,75.107H369.681V0H0Z" transform="translate(0 0.893)" fill="none"/>
      <path id="Fill_9" data-name="Fill 9" d="M0,51.454H9.852V0H0Z" transform="translate(54.754 24.262)" fill="#d92c27"/>
      <path id="Fill_11" data-name="Fill 11" d="M20.19.191l-3.8,1.048a15.772,15.772,0,0,0-7.011,5.6V1.8L0,1.715V41.21H9.758V22.317c0-3.233.386-5.505,1.242-6.937a9.243,9.243,0,0,1,3.412-3.792,9.529,9.529,0,0,1,5.4-1.711l3.024.193L22.745,0Z" transform="translate(110.927 34.51)" fill="#d92c27"/>
      <path id="Fill_12" data-name="Fill 12" d="M26.058,2.6V0H0V8.826H26.058V2.619" transform="translate(181.706 45.813)" fill="#d92c27"/>
      <path id="Fill_13" data-name="Fill 13" d="M35.3,35.889H4.232A4.232,4.232,0,0,1,.387,29.9L6.8,15.874a4.242,4.242,0,0,1,3.845-2.467H36.928a2.352,2.352,0,0,0,2.134-1.374l.522-1.141a1.363,1.363,0,0,0-1.238-1.93H12.067a1.364,1.364,0,0,1-1.238-1.933L12.92,2.465A4.235,4.235,0,0,1,16.763,0H52.291a1.363,1.363,0,0,1,1.238,1.93L39.14,33.419A4.241,4.241,0,0,1,35.3,35.889ZM14.557,22.37a1.368,1.368,0,0,0-1.241.795l-.835,1.83a1.365,1.365,0,0,0,1.241,1.931H30.757a2.341,2.341,0,0,0,2.125-1.366l.574-1.261a1.361,1.361,0,0,0-1.238-1.929Z" transform="translate(269.262 38.116)" fill="#231f20"/>
      <path id="Fill_14" data-name="Fill 14" d="M6.934,35.913H.292a.29.29,0,0,1-.244-.134A.293.293,0,0,1,.026,35.5L15.014,2.617A4.487,4.487,0,0,1,19.087,0H52.456a2.678,2.678,0,0,1,2.426,3.808L49.77,14.791A18.51,18.51,0,0,1,32.933,25.614H15.081a1.134,1.134,0,0,0-1.03.659l-3.276,7.169A4.234,4.234,0,0,1,6.934,35.913ZM22.84,8.964a1.368,1.368,0,0,0-1.243.8L18.64,16.235a.292.292,0,0,0,.265.415H34.343a7.379,7.379,0,0,0,6.693-4.3l.664-1.453a1.363,1.363,0,0,0-1.241-1.93Z" transform="translate(218.314 38.121)" fill="#231f20"/>
      <path id="Fill_15" data-name="Fill 15" d="M41.111.037H31.058a4.231,4.231,0,0,0-2.393.742L15.927,9.527,10.858,1.912A4.23,4.23,0,0,0,7.359.027L1.373,0A1.364,1.364,0,0,0,.231,2.12L10.377,17.359,2.062,35.545a.294.294,0,0,0,.267.415l6.679,0a4.224,4.224,0,0,0,3.844-2.469l7.357-15.96L41.886,2.524A1.364,1.364,0,0,0,41.111.037" transform="translate(327.203 38.061)" fill="#231f20"/>
    </g>
  </g>
</svg>
